<svg width="30" height="28" viewBox="0 0 30 28" fill="none" xmlns="http://www.w3.org/2000/svg">
<path d="M3.02086 18.9679C2.15322 17.0713 1.73834 14.9989 1.80896 12.9144C1.87958 10.83 2.43378 8.79045 3.42779 6.9569C4.4218 5.12334 5.82842 3.54595 7.5366 2.34923C9.24477 1.15252 11.2078 0.369256 13.2705 0.0612793C10.9336 0.180519 8.66399 0.884661 6.66992 2.10911C4.67586 3.33356 3.02117 5.03912 1.85765 7.06934C0.69412 9.09955 0.0590066 11.3894 0.0105639 13.7289C-0.0378787 16.0684 0.501898 18.3826 1.58039 20.4593C2.65887 22.5359 4.24154 24.3085 6.18321 25.6144C8.12488 26.9204 10.3634 27.7179 12.6934 27.9338C15.0234 28.1496 17.3703 27.777 19.5189 26.85C21.6675 25.923 23.5488 24.4714 24.9905 22.6282C23.4758 24.2204 21.5941 25.4172 19.5099 26.1139C17.4257 26.8106 15.2025 26.9861 13.0349 26.625C10.8672 26.2638 8.821 25.377 7.07529 24.0422C5.32959 22.7074 3.93752 20.9651 3.02086 18.9679Z" fill="#00A4DA"/>
<path d="M15.1583 0L16.6037 0.111033L16.5692 0.543689L15.6426 0.472857L15.6024 1.00506L16.395 1.06441L16.3605 1.49897L15.568 1.43963L15.4991 2.32982L14.9822 2.28962L15.1583 0Z" fill="#00A4DA"/>
<path d="M16.9099 1.3936L17.2239 0.200928L17.7255 0.333022L17.3981 1.57738C17.2852 2.01386 17.3809 2.19956 17.6297 2.26465C17.8786 2.32974 18.0643 2.2187 18.1792 1.78413L18.5065 0.539774L18.9909 0.666125L18.6769 1.8588C18.4855 2.60541 18.0911 2.85045 17.5168 2.69922C16.9425 2.54798 16.7127 2.14022 16.9099 1.3936Z" fill="#00A4DA"/>
<path d="M19.747 0.953369L20.2237 1.19076L20.2505 2.48106L20.2295 3.03432H20.2429C20.329 2.80651 20.4343 2.5002 20.5549 2.25707L20.9167 1.52961L21.3609 1.74976L20.3367 3.80774L19.8676 3.5761L19.8408 2.28388L19.8619 1.73253H19.8485C19.7566 1.96992 19.657 2.26473 19.5364 2.49829L19.1746 3.22768L18.719 3.01135L19.747 0.953369Z" fill="#00A4DA"/>
<path d="M21.2517 3.04573C21.7208 2.44461 22.3908 2.40441 22.8771 2.78154C22.9833 2.86366 23.072 2.96631 23.1378 3.0834C23.2035 3.20048 23.2451 3.3296 23.2599 3.46307L22.8407 3.55687C22.8316 3.47652 22.8064 3.39882 22.7666 3.32842C22.7268 3.25803 22.6732 3.19639 22.6091 3.1472C22.3296 2.92895 21.9601 2.99596 21.6787 3.35969C21.3972 3.72343 21.3896 4.08142 21.7303 4.34561C21.7963 4.40107 21.878 4.43454 21.9639 4.44133L22.2089 4.12737L21.9065 3.89381L22.1668 3.55879L22.833 4.07567L22.1821 4.91227C21.9051 4.93006 21.6316 4.84254 21.4164 4.66722C20.9186 4.2786 20.777 3.65833 21.2517 3.04573Z" fill="#00A4DA"/>
<path d="M24.0199 3.80396L24.3837 4.23852L23.8419 5.18232C23.7672 5.30484 23.6811 5.42928 23.6007 5.5652L23.6102 5.57668C23.7481 5.52117 23.8859 5.45608 24.0199 5.40439L25.0346 5.02151L25.3983 5.45608L23.639 6.934L23.3346 6.57217L23.9797 6.02849C24.152 5.88491 24.4353 5.70304 24.621 5.5786L24.6115 5.56712L24.0793 5.7643L23.191 6.08783L22.9995 5.86768L23.4647 5.05214L23.7634 4.56014L23.7538 4.55057C23.5988 4.71138 23.3709 4.95833 23.1986 5.10383L22.5516 5.64561L22.2529 5.28952L24.0199 3.80396Z" fill="#00A4DA"/>
<path d="M24.7552 6.7252L25.8502 6.15088L26.0895 6.61034L24.9409 7.20571C24.5407 7.41247 24.4699 7.60966 24.5886 7.83747C24.7073 8.06528 24.9141 8.12846 25.3123 7.91979L26.4609 7.32632L26.6906 7.77046L25.5975 8.34478C24.9121 8.70086 24.4699 8.57834 24.1962 8.05188C23.9224 7.52542 24.0794 7.08128 24.7552 6.7252Z" fill="#00A4DA"/>
<path d="M27.3032 9.62187L27.4468 10.2268L25.3773 11.4616L25.251 10.9256L26.3135 10.3647C26.5221 10.2479 26.7729 10.1254 26.9912 10.0105V9.9971C26.7423 9.9971 26.4666 9.9971 26.2254 9.9971L25.0232 9.97221L24.9006 9.45532L27.3032 9.62187ZM25.9363 9.69462L26.1909 10.7705L25.8081 10.8643L25.5515 9.78843L25.9363 9.69462Z" fill="#00A4DA"/>
<path d="M27.6266 11.3008L27.6821 11.8177L25.3963 12.0589L25.3408 11.542L27.6266 11.3008Z" fill="#00A4DA"/>
<path d="M26.3881 13.2055L26.7097 13.575L25.3926 14.268L25.4098 13.6937L26.3881 13.2055ZM27.7435 12.5144L27.7186 13.3415C27.7052 13.8277 27.5271 14.2221 26.9777 14.2068C26.4283 14.1914 26.233 13.7837 26.2483 13.2974L26.2579 12.9892L25.4309 12.9643L25.4462 12.4436L27.7435 12.5144ZM26.6618 13.2668C26.6618 13.5406 26.7671 13.6899 26.993 13.6975C27.2189 13.7052 27.2993 13.5597 27.3089 13.2859V13.0198L26.6618 13.0007V13.2668Z" fill="#00A4DA"/>
<path d="M9.47241 24.6365C17.7292 28.7697 22.3716 20.3827 27.6381 20.0266C23.637 17.1799 15.9833 26.1067 9.47241 24.6365Z" fill="#00A4DA"/>
<path d="M20.8077 16.2455C19.839 16.6456 18.855 17.1146 17.8672 17.5951C16.6669 18.1695 15.4646 18.7725 14.2815 19.2683C13.1803 19.7562 12.0276 20.1183 10.8452 20.348C7.79938 20.8707 5.10199 19.8312 3.25268 14.9609C3.25142 14.9571 3.24899 14.9538 3.24572 14.9514C3.24246 14.949 3.23853 14.9478 3.2345 14.9478C3.23046 14.9478 3.22654 14.949 3.22327 14.9514C3.22001 14.9538 3.21757 14.9571 3.21631 14.9609C6.67754 33.9728 23.2811 15.4051 29.2789 16.7451C26.951 14.3885 23.9703 14.9399 20.8077 16.2455Z" fill="#F8D113"/>
<path d="M17.5281 14.2336C16.5759 14.5267 15.6556 14.9147 14.781 15.3918C14.2564 15.6598 13.7242 15.9412 13.1882 16.2054C12.4734 16.5727 11.7309 16.8831 10.9675 17.1339C9.79587 17.4977 8.59554 17.6278 7.35692 17.2583C6.31549 16.9501 5.25108 16.2877 4.1503 15.1219C3.92823 14.8858 3.70552 14.6305 3.48218 14.3561C3.63661 14.6637 3.79487 14.9547 3.95695 15.2291C4.51285 16.2405 5.23585 17.1505 6.09533 17.9207C6.68776 18.451 7.39233 18.8406 8.15642 19.0603C8.92052 19.2801 9.7244 19.3244 10.508 19.19C11.5815 19.0041 12.6235 18.6683 13.6036 18.1926C14.5034 17.7848 15.3993 17.3062 16.2838 16.8525C17.463 16.2437 18.6193 15.6751 19.7297 15.3631C20.3931 15.1576 21.0894 15.079 21.7819 15.1314C20.3863 13.9369 18.9716 13.8392 17.5281 14.2336Z" fill="#00A4DA"/>
<path d="M11.559 12.2886C11.5841 12.2946 11.6098 12.2978 11.6356 12.2982C11.707 12.2967 11.7766 12.2753 11.8364 12.2364C11.8963 12.1975 11.9441 12.1426 11.9745 12.078C12.009 12.0117 12.0189 11.9353 12.0024 11.8624C11.986 11.7895 11.9442 11.7248 11.8845 11.6798C11.2623 11.1955 9.99688 10.1942 8.54002 8.93264C7.58282 8.10944 7.12911 7.3456 7.17123 6.66408C7.18911 6.46352 7.24959 6.2691 7.34863 6.09379C7.44767 5.91849 7.58299 5.76635 7.74555 5.64753L8.04611 5.45609L7.69386 5.38143C7.61346 5.36611 5.72777 4.98515 4.58679 6.51858C4.01247 7.28434 3.7636 8.5287 4.50256 9.56056C5.37935 10.7915 9.73078 11.8789 11.559 12.2886Z" fill="#00A4DA"/>
<path d="M12.4015 11.9402H12.4341C12.5086 11.936 12.5794 11.906 12.6342 11.8554C12.689 11.8047 12.7245 11.7366 12.7346 11.6626C12.8418 10.8816 13.0754 9.28687 13.4411 7.39161C13.6784 6.15683 14.1092 5.37767 14.7199 5.07328C14.9015 4.98789 15.0993 4.94219 15.3 4.93922C15.5007 4.93625 15.6997 4.97607 15.8838 5.05604L16.2054 5.21686L16.0944 4.87418C16.0676 4.7976 15.4531 2.97318 13.5559 2.75302C12.5987 2.64199 11.4041 3.04593 10.8758 4.20031C10.2459 5.58442 11.4807 9.89565 12.0397 11.6856C12.0663 11.7603 12.1153 11.8249 12.1801 11.8705C12.2449 11.9161 12.3223 11.9404 12.4015 11.9402Z" fill="#00A4DA"/>
<path d="M21.2919 8.64165C20.909 7.75911 19.9614 6.91869 18.6998 7.04696C17.1855 7.19436 14.0689 10.4182 12.7996 11.7985C12.7449 11.8625 12.7128 11.9428 12.7083 12.0269C12.7038 12.111 12.7272 12.1942 12.7748 12.2637C12.8043 12.3079 12.8441 12.3442 12.8908 12.3696C12.9375 12.3949 12.9896 12.4085 13.0428 12.4092C13.0843 12.4094 13.1254 12.4009 13.1634 12.3843C13.8947 12.0876 15.3937 11.4922 17.2162 10.8528C18.405 10.4431 19.2952 10.4259 19.8638 10.803C20.0284 10.9174 20.1668 11.0655 20.2698 11.2374C20.3727 11.4094 20.438 11.6013 20.4611 11.8004L20.4821 12.1603L20.7233 11.8923C20.7769 11.8406 22.05 10.3952 21.2919 8.64165Z" fill="#00A4DA"/>
<path d="M11.9192 12.5814C11.8815 12.5166 11.8238 12.4658 11.7547 12.4368C11.6856 12.4078 11.6089 12.4021 11.5363 12.4205C10.1541 12.7824 6.90726 13.7109 4.85311 14.3349L4.61572 14.4077L4.78993 14.5838C5.71267 15.5257 6.6335 16.1249 7.6041 16.414C7.77729 16.4647 7.95302 16.5062 8.13056 16.5384L8.19757 16.5499L8.25117 16.5078C9.5426 15.429 10.7579 14.2623 11.8885 13.0159C11.9404 12.9568 11.9715 12.8823 11.9771 12.8038C11.9826 12.7253 11.9623 12.6472 11.9192 12.5814Z" fill="#00A4DA"/>
<path d="M12.6636 13.1021C12.6417 13.0288 12.5967 12.9646 12.5353 12.9191C12.4739 12.8735 12.3993 12.8491 12.3229 12.8494C12.2466 12.8487 12.1722 12.8725 12.1105 12.9173C12.0488 12.9621 12.0032 13.0255 11.9802 13.0982C11.7639 13.7683 11.4403 14.8078 11.1245 15.9698L11.0498 16.2493L11.3197 16.1498C11.9083 15.9314 12.4836 15.6789 13.0427 15.3936L13.282 15.2749L13.2494 15.1562C13.035 14.3196 12.8111 13.5749 12.6636 13.1021Z" fill="#00A4DA"/>
<path d="M13.3586 12.5165L13.127 12.4648C13.0523 12.4473 12.9741 12.4542 12.9037 12.4845C12.8333 12.5148 12.7745 12.5669 12.7359 12.6331C12.6973 12.6993 12.681 12.7762 12.6894 12.8524C12.6978 12.9286 12.7303 13 12.7824 13.0563C13.1155 13.4239 13.6419 14.0001 14.2679 14.6472L14.3445 14.7276L14.6298 14.5802C15.3887 14.1872 16.2006 13.9061 17.04 13.7455L17.6258 13.6345L17.0515 13.4545C15.8473 13.0678 14.2297 12.7098 13.3586 12.5165Z" fill="#00A4DA"/>
</svg>
