<svg width="124" height="28" viewBox="0 0 124 28" fill="none" xmlns="http://www.w3.org/2000/svg">
<g clip-path="url(#clip0_340_580)">
<path d="M3.02357 18.9698C2.15295 17.0732 1.73664 15.0009 1.8075 12.9164C1.87837 10.8319 2.43447 8.7924 3.4319 6.95884C4.42934 5.12529 5.8408 3.54789 7.55486 2.35118C9.26892 1.15446 11.2386 0.371209 13.3085 0.0632324C10.9638 0.183537 8.68687 0.888614 6.68661 2.1138C4.68636 3.33899 3.0268 5.04507 1.86014 7.07557C0.69348 9.10607 0.0570594 11.396 0.00925523 13.7353C-0.0385489 16.0746 0.50379 18.3885 1.58653 20.4646C2.66927 22.5408 4.25776 24.3128 6.2063 25.6181C8.15485 26.9234 10.4011 27.7203 12.739 27.9357C15.0769 28.151 17.4316 27.7779 19.5872 26.8506C21.7428 25.9233 23.6303 24.4715 25.0765 22.6283C23.5564 24.2213 21.6678 25.4188 19.5758 26.1162C17.4838 26.8135 15.2523 26.9894 13.0763 26.6284C10.9004 26.2674 8.84633 25.3806 7.09386 24.0455C5.34138 22.7104 3.94387 20.9677 3.02357 18.9698Z" fill="white"/>
<path d="M15.2085 0L16.6607 0.111038L16.6262 0.545599L15.6964 0.474767L15.6541 1.00506L16.4494 1.06632L16.4168 1.50089L15.6215 1.43963L15.5523 2.32982L15.0317 2.29154L15.2085 0Z" fill="white"/>
<path d="M16.9681 1.39555L17.2831 0.202881L17.7864 0.334975L17.4579 1.57933C17.3427 2.0139 17.4406 2.20152 17.6904 2.26661C17.9401 2.3317 18.1264 2.21874 18.2398 1.78418L18.5683 0.539817L19.0562 0.668078L18.7411 1.86076C18.549 2.60737 18.1533 2.85241 17.5751 2.70117C16.9969 2.54993 16.7702 2.14216 16.9681 1.39555Z" fill="white"/>
<path d="M19.8129 0.955322L20.2912 1.1908L20.3201 2.4811L20.2989 3.03436H20.3124C20.3988 2.80463 20.5045 2.49834 20.6255 2.25521L20.9886 1.52773L21.4323 1.7498L20.4065 3.80778L19.9282 3.5704L19.9013 2.27626L19.9205 1.72683H19.909C19.8168 1.96613 19.7169 2.25903 19.5958 2.49259L19.2328 3.22389L18.7871 3.00373L19.8129 0.955322Z" fill="white"/>
<path d="M21.3247 3.04766C21.7934 2.44463 22.4677 2.40635 22.9537 2.78157C23.0605 2.86353 23.1495 2.96614 23.2156 3.08325C23.2816 3.20037 23.3232 3.32957 23.3379 3.4631L22.9152 3.55882C22.9071 3.47816 22.8824 3.40002 22.8428 3.32923C22.8031 3.25844 22.7493 3.19649 22.6847 3.14721C22.4043 2.93089 22.0335 2.99597 21.7492 3.35971C21.4649 3.72345 21.4591 4.08145 21.803 4.34755C21.8693 4.40255 21.9513 4.43536 22.0374 4.44135L22.2813 4.1293L21.9797 3.89574L22.241 3.56072L22.9095 4.07569L22.2564 4.9142C21.9786 4.93049 21.7046 4.84314 21.488 4.66916C20.9904 4.28054 20.8483 3.65836 21.3247 3.04766Z" fill="white"/>
<path d="M24.1008 3.80591L24.4677 4.24048L23.9222 5.18236C23.8492 5.30488 23.7608 5.43123 23.6821 5.56524C23.8204 5.50972 23.9587 5.44463 24.0932 5.39294L25.1113 5.01006L25.4763 5.44272L23.709 6.92064L23.4227 6.56455L24.072 6.02279C24.2449 5.87921 24.5292 5.69541 24.7156 5.57098L24.7059 5.55949L24.1662 5.76625L23.2787 6.08405L23.0866 5.86197L23.5514 5.04644L23.853 4.55635L23.8434 4.54486C23.6878 4.70759 23.4592 4.95455 23.2863 5.09813L22.6351 5.63607L22.3354 5.27808L24.1008 3.80591Z" fill="white"/>
<path d="M24.8404 6.7252L25.9372 6.15088L26.1793 6.61224L25.0267 7.20571C24.6252 7.41247 24.5522 7.61157 24.6713 7.83938C24.7904 8.06719 24.9998 8.12845 25.3994 7.9217L26.552 7.32632L26.7844 7.77046L25.6875 8.34478C24.9998 8.70086 24.5561 8.57833 24.2794 8.04996C24.0028 7.52159 24.1526 7.08128 24.8404 6.7252Z" fill="white"/>
<path d="M27.3952 9.62187L27.5412 10.2268L25.4646 11.4616L25.3359 10.9275L26.404 10.3647C26.6134 10.2498 26.8631 10.1273 27.084 10.0124V9.9971C26.8343 9.9971 26.5577 9.9971 26.3156 9.9971L25.1092 9.97221L24.9844 9.45532L27.3952 9.62187ZM26.0236 9.69462L26.281 10.7705L25.8872 10.8643L25.6298 9.78843L26.0236 9.69462Z" fill="white"/>
<path d="M27.7219 11.3025L27.7757 11.8175L25.482 12.0587L25.4282 11.5437L27.7219 11.3025Z" fill="white"/>
<path d="M26.4789 13.2056L26.8016 13.575L25.478 14.27L25.4953 13.6957L26.4789 13.2056ZM27.8389 12.5145L27.8139 13.3415C27.7986 13.8297 27.6219 14.224 27.0686 14.2068C26.5154 14.1896 26.3233 13.7856 26.3386 13.2975L26.3482 12.9892L25.5184 12.9644L25.5337 12.4456L27.8389 12.5145ZM26.7536 13.2668C26.7536 13.5406 26.8573 13.6918 27.084 13.6976C27.3106 13.7033 27.3932 13.5597 27.4009 13.2879V13.0218L26.7536 13.0026V13.2668Z" fill="white"/>
<path d="M9.50488 24.6364C17.7882 28.7696 22.4466 20.3845 27.7312 20.0284C23.7183 17.1817 16.0362 26.1066 9.50488 24.6364Z" fill="white"/>
<path d="M20.8794 16.2456C19.9074 16.6457 18.9181 17.1167 17.9269 17.5953C16.7243 18.1696 15.516 18.7726 14.3308 19.2685C13.2223 19.7566 12.0625 20.1194 10.873 20.3501C7.81671 20.8708 5.11003 19.8332 3.25628 14.9611C3.25628 14.94 3.21402 14.9477 3.21978 14.9611C6.71022 33.9825 23.3613 15.4167 29.3779 16.7568C27.0477 14.3906 24.0529 14.94 20.8794 16.2456Z" fill="#F8D113"/>
<path d="M17.5884 14.2355C16.6326 14.5301 15.709 14.92 14.8318 15.3994C14.3035 15.6674 13.7714 15.9469 13.2335 16.213C12.5157 16.5785 11.7707 16.8883 11.0052 17.1396C9.82953 17.5053 8.62315 17.6335 7.38027 17.266C6.33525 16.9558 5.26718 16.2954 4.16261 15.1276C3.9417 14.8921 3.71694 14.6375 3.49219 14.3618C3.64971 14.672 3.80915 14.961 3.96859 15.2367C4.52844 16.2439 5.25447 17.15 6.11626 17.9169C6.70927 18.4463 7.41462 18.8355 8.17967 19.0553C8.94473 19.275 9.74971 19.3198 10.5345 19.1861C11.6122 19.0009 12.6585 18.6658 13.6427 18.1906C14.5456 17.7809 15.4446 17.3023 16.3321 16.8505C17.5154 16.2418 18.6757 15.6713 19.7899 15.3611C20.4591 15.157 21.1611 15.081 21.8588 15.1371C20.4564 13.933 19.0368 13.8411 17.5884 14.2355Z" fill="white"/>
<path d="M11.5989 12.2903C11.6238 12.2932 11.6489 12.2932 11.6738 12.2903C11.7458 12.2892 11.816 12.268 11.8765 12.2291C11.9369 12.1902 11.9852 12.1351 12.0158 12.0702C12.0499 12.0041 12.0596 11.9281 12.0431 11.8556C12.0265 11.7832 11.9849 11.7188 11.9255 11.6739C11.2992 11.1895 10.0314 10.1883 8.56759 8.92481C7.6071 8.10162 7.15374 7.33969 7.196 6.65817C7.2137 6.45755 7.27429 6.26303 7.37369 6.08769C7.47309 5.91235 7.60901 5.76026 7.7723 5.64162L8.07198 5.45018L7.72044 5.37552C7.63976 5.35829 5.74566 4.97924 4.60267 6.51076C4.02637 7.27652 3.77664 8.52279 4.51622 9.55274C5.39796 10.7914 9.76245 11.8787 11.5989 12.2903Z" fill="white"/>
<path d="M12.4386 11.942H12.4732C12.5476 11.9382 12.6183 11.9085 12.6731 11.8582C12.7278 11.8078 12.7631 11.74 12.7729 11.6664C12.8824 10.8834 13.1167 9.28867 13.4837 7.39533C13.7219 6.16054 14.1541 5.37947 14.7669 5.077C14.9489 4.99282 15.1467 4.94795 15.3473 4.94531C15.5479 4.94267 15.7468 4.98232 15.931 5.06168L16.2518 5.22249L16.1423 4.87024C16.1173 4.79175 15.5007 2.96923 13.597 2.74716C12.6365 2.63613 11.4359 3.04007 10.9076 4.19445C10.2756 5.58047 11.5146 9.89171 12.0756 11.6798C12.1009 11.7559 12.1496 11.8221 12.2147 11.8692C12.2799 11.9162 12.3582 11.9417 12.4386 11.942Z" fill="white"/>
<path d="M21.3652 8.64157C20.981 7.75903 20.0205 6.91861 18.7642 7.04879C17.2446 7.1962 14.1173 10.42 12.8437 11.7984C12.7887 11.8624 12.7565 11.9427 12.752 12.0268C12.7475 12.1109 12.7709 12.1941 12.8187 12.2636C12.8483 12.3078 12.8883 12.3441 12.9351 12.3695C12.982 12.3948 13.0343 12.4084 13.0876 12.4091C13.129 12.4089 13.1701 12.4011 13.2086 12.3861C13.9425 12.0875 15.4466 11.494 17.2754 10.8546C18.4683 10.443 19.3616 10.4258 19.9321 10.8029C20.0973 10.9177 20.2362 11.0661 20.3396 11.2384C20.4429 11.4107 20.5083 11.6029 20.5315 11.8022L20.5526 12.1602L20.7927 11.8941C20.8484 11.8405 22.124 10.3971 21.3652 8.64157Z" fill="white"/>
<path d="M11.9599 12.5833C11.9221 12.5185 11.8642 12.4678 11.7949 12.4387C11.7255 12.4097 11.6486 12.404 11.5757 12.4225C10.1888 12.7824 6.92885 13.7128 4.86763 14.3369L4.63135 14.4077L4.80424 14.5839C5.73207 15.5277 6.65607 16.1269 7.63001 16.414C7.80325 16.4667 7.9797 16.5083 8.15829 16.5385L8.22552 16.5519L8.27931 16.5078C9.57428 15.428 10.7937 14.2614 11.9292 13.016C11.9811 12.9571 12.0122 12.883 12.0178 12.8048C12.0233 12.7266 12.003 12.6488 11.9599 12.5833Z" fill="white"/>
<path d="M12.7073 13.1021C12.6848 13.0289 12.6392 12.9649 12.5772 12.9197C12.5152 12.8745 12.4402 12.8505 12.3634 12.8513C12.2872 12.8508 12.2127 12.8747 12.1512 12.9195C12.0896 12.9643 12.0441 13.0277 12.0215 13.1002C11.8044 13.7683 11.4797 14.8098 11.1628 15.9718L11.0859 16.2513L11.3587 16.1537C11.949 15.9309 12.5262 15.6752 13.0876 15.3879L13.3258 15.2692L13.2951 15.1525C13.078 14.3159 12.8571 13.5769 12.7073 13.1021Z" fill="white"/>
<path d="M13.4083 12.5164L13.1778 12.4647C13.1031 12.4481 13.025 12.4555 12.9549 12.4859C12.8847 12.5164 12.826 12.5682 12.7873 12.6341C12.7486 12.6999 12.7319 12.7762 12.7396 12.8521C12.7473 12.928 12.779 12.9995 12.8301 13.0563C13.1644 13.4258 13.6946 14.0001 14.3208 14.6491L14.3996 14.7276L14.6858 14.5821C15.4454 14.1884 16.258 13.906 17.0985 13.7436L17.6864 13.6325L17.1101 13.4526C15.8941 13.0678 14.2785 12.7194 13.4083 12.5164Z" fill="white"/>
<path d="M55.5685 14.7792H46.0404V17.2009H50.6162C51.3273 17.1848 52.0289 17.3657 52.6428 17.7235C53.2086 18.0533 53.6735 18.5305 53.9875 19.1038C54.301 19.6713 54.4636 20.3092 54.4601 20.957C54.4661 21.6129 54.3034 22.2595 53.9875 22.835C53.6736 23.4088 53.2087 23.8867 52.6428 24.2172C52.0281 24.573 51.3269 24.7532 50.6162 24.7379H39.1056C38.3943 24.7529 37.6926 24.5728 37.0771 24.2172C36.511 23.8869 36.0461 23.409 35.7324 22.835C35.4165 22.2595 35.2538 21.6129 35.2598 20.957C35.2563 20.3092 35.4189 19.6713 35.7324 19.1038C36.0462 18.5303 36.5111 18.053 37.0771 17.7235C37.692 17.3664 38.394 17.1855 39.1056 17.2009H43.6814V14.7792H34.1533V12.7423H55.5685V14.7792ZM50.426 8.84455H54.5542V10.8796H35.1676V8.84263H39.2017L38.683 5.42544H41.0958L41.6144 8.84263H48.0517L48.5723 5.42544H50.9697L50.426 8.84455ZM35.4039 2.90991H54.3179V4.94492H35.4039V2.90991ZM51.5402 19.726C51.1418 19.3927 50.6326 19.2199 50.1129 19.2416H39.559C39.0505 19.2212 38.5532 19.3944 38.1682 19.726C37.9941 19.8759 37.8553 20.0622 37.7617 20.2717C37.668 20.4811 37.6219 20.7086 37.6265 20.9378C37.6193 21.1761 37.664 21.4131 37.7575 21.6326C37.851 21.852 37.9911 22.0487 38.1682 22.209C38.5498 22.5478 39.0483 22.7262 39.559 22.7067H50.1244C50.6464 22.7276 51.1567 22.5496 51.5517 22.209C51.7318 22.0505 51.8747 21.8544 51.9703 21.6348C52.0659 21.4151 52.1119 21.1771 52.105 20.9378C52.1093 20.7065 52.0616 20.4772 51.9651 20.2668C51.8687 20.0564 51.7261 19.8703 51.5479 19.7222L51.5402 19.726Z" fill="white"/>
<path d="M68.8002 24.9312H66.4412V17.8881H56.9131V15.8454H78.3283V17.8881H68.8002V24.9312ZM76.8683 12.8877H58.3846V3.17212H76.876L76.8683 12.8877ZM60.732 5.20713V10.8527H74.5055V5.20713H60.732Z" fill="white"/>
<path d="M94.0595 6.59329H79.8999V4.55254H85.7973V2.0083H88.1602V4.55254H94.0576L94.0595 6.59329ZM80.8988 9.50892C81.1927 8.97301 81.6295 8.52847 82.1609 8.22436C82.6876 7.92603 83.284 7.7715 83.8898 7.77639H90.0811C90.687 7.7715 91.2833 7.92603 91.81 8.22436C92.3415 8.52847 92.7782 8.97301 93.0721 9.50892C93.3828 10.1126 93.5448 10.7813 93.5448 11.4597C93.5448 12.1381 93.3828 12.8068 93.0721 13.4105C92.7782 13.9458 92.3414 14.3898 91.81 14.6931C91.2838 14.9929 90.6872 15.1481 90.0811 15.143H83.8936C83.2875 15.1481 82.6909 14.9929 82.1647 14.6931C81.6334 14.3898 81.1966 13.9458 80.9027 13.4105C80.592 12.8068 80.43 12.1381 80.43 11.4597C80.43 10.7813 80.592 10.1126 80.9027 9.50892H80.8988ZM81.6307 18.698C82.0248 18.0837 82.5847 17.5927 83.2463 17.2814C83.9561 16.9439 84.7343 16.7736 85.5207 16.7836H95.5694C96.36 16.7749 97.1423 16.9451 97.8573 17.2814C98.5232 17.5907 99.0874 18.082 99.4844 18.698C99.8715 19.3243 100.077 20.045 100.079 20.7805C100.081 21.516 99.8782 22.2377 99.494 22.8657C99.096 23.4842 98.5324 23.9795 97.8669 24.2957C97.154 24.6393 96.3709 24.8136 95.579 24.805H85.5207C84.733 24.8149 83.954 24.6405 83.2463 24.2957C82.5844 23.9778 82.0244 23.4827 81.6288 22.8657C81.2431 22.2386 81.039 21.5174 81.039 20.7819C81.039 20.0463 81.2431 19.3251 81.6288 18.698H81.6307ZM89.2955 13.1022C89.8935 13.1022 90.3571 12.9491 90.6863 12.6428C90.8434 12.4871 90.9681 12.302 91.0531 12.0982C91.1382 11.8943 91.182 11.6757 91.182 11.4549C91.182 11.2341 91.1382 11.0155 91.0531 10.8116C90.9681 10.6078 90.8434 10.4227 90.6863 10.267C90.3559 9.96072 89.8922 9.80756 89.2955 9.80756H84.6716C84.0736 9.80756 83.61 9.96072 83.2808 10.267C83.1237 10.4227 82.999 10.6078 82.914 10.8116C82.8289 11.0155 82.7851 11.2341 82.7851 11.4549C82.7851 11.6757 82.8289 11.8943 82.914 12.0982C82.999 12.302 83.1237 12.4871 83.2808 12.6428C83.6112 12.9491 84.0749 13.1022 84.6716 13.1022H89.2955ZM95.4273 22.7719C96.0218 22.7942 96.6042 22.6003 97.0659 22.2263C97.2773 22.0513 97.4458 21.8305 97.5584 21.5806C97.6709 21.3307 97.7245 21.0585 97.7152 20.7847C97.7252 20.5126 97.6719 20.2418 97.5592 19.9936C97.4465 19.7455 97.2777 19.5268 97.0659 19.3547C96.6012 18.9874 96.0199 18.7979 95.4273 18.8206H85.6629C85.0776 18.8004 84.5044 18.9899 84.0473 19.3547C83.8355 19.5268 83.6666 19.7455 83.554 19.9936C83.4413 20.2418 83.3879 20.5126 83.398 20.7847C83.3884 21.0574 83.4407 21.3287 83.5512 21.5783C83.6616 21.828 83.8273 22.0495 84.0358 22.2263C84.4924 22.6013 85.0717 22.7955 85.6629 22.7719H95.4273ZM99.4364 15.9738H97.0774V2.59029H99.4364V7.55049H102.456V9.5855H99.4364V15.9738Z" fill="white"/>
<path d="M123.846 14.2699H102.431V12.2349H110.782V7.75135H113.133V12.2349H123.841L123.846 14.2699ZM104.012 18.5581C104.315 17.9419 104.78 17.4187 105.357 17.0438C105.961 16.6563 106.667 16.4564 107.385 16.4695H118.896C119.614 16.4564 120.32 16.6563 120.925 17.0438C121.501 17.4187 121.966 17.9419 122.269 18.5581C122.582 19.1908 122.743 19.8877 122.738 20.5931C122.744 21.307 122.583 22.0124 122.267 22.653C121.965 23.2696 121.5 23.7929 120.923 24.1673C120.319 24.5557 119.613 24.7557 118.894 24.7416H107.385C106.667 24.7557 105.961 24.5557 105.357 24.1673C104.78 23.7929 104.315 23.2696 104.012 22.653C103.695 22.0128 103.533 21.3072 103.54 20.5931C103.535 19.8873 103.697 19.1902 104.012 18.5581ZM119.979 4.94101H103.912V2.90601H122.498L121.883 10.8297H119.532L119.979 4.94101ZM118.398 22.7028C118.666 22.7111 118.933 22.6611 119.179 22.5563C119.426 22.4515 119.646 22.2944 119.826 22.0959C120.202 21.6759 120.401 21.1272 120.381 20.5644C120.39 20.2938 120.346 20.024 120.251 19.7704C120.156 19.5169 120.011 19.2845 119.826 19.0865C119.642 18.8957 119.42 18.7458 119.174 18.6468C118.928 18.5478 118.664 18.5019 118.398 18.5122H107.833C107.573 18.5028 107.315 18.5493 107.075 18.6484C106.835 18.7475 106.619 18.8969 106.442 19.0865C106.074 19.4891 105.878 20.0198 105.899 20.5644C105.877 21.1253 106.072 21.6732 106.442 22.0959C106.615 22.2931 106.829 22.4498 107.069 22.5547C107.31 22.6596 107.571 22.7102 107.833 22.7028H118.398Z" fill="white"/>
</g>
<defs>
<clipPath id="clip0_340_580">
<rect width="123.846" height="28" fill="white"/>
</clipPath>
</defs>
</svg>
