<svg width="212" height="32" viewBox="0 0 212 32" fill="none" xmlns="http://www.w3.org/2000/svg">
<g clip-path="url(#clip0_151_501)">
<path d="M4.44304 21.6802C3.45088 19.5129 2.97622 17.1445 3.05655 14.7622C3.13687 12.3799 3.76998 10.0489 4.90587 7.9533C6.04175 5.85769 7.64931 4.05487 9.60158 2.68723C11.5539 1.31958 13.7974 0.424572 16.1549 0.072876C13.4843 0.210228 10.8908 1.01594 8.61245 2.41611C6.33408 3.81629 4.44374 5.7661 3.1148 8.08673C1.78585 10.4074 1.06084 13.0245 1.00626 15.6982C0.951676 18.3718 1.56927 21.0164 2.8024 23.3893C4.03553 25.7623 5.84471 27.7876 8.06403 29.2796C10.2833 30.7716 12.8418 31.6825 15.5046 31.9287C18.1675 32.1749 20.8495 31.7486 23.3048 30.6889C25.7601 29.6292 27.91 27.9699 29.5573 25.8634C27.8259 27.6835 25.6749 29.0517 23.2925 29.8482C20.91 30.6448 18.3687 30.8455 15.8907 30.4327C13.4128 30.02 11.0737 29.0064 9.07804 27.4806C7.0824 25.9548 5.49101 23.9633 4.44304 21.6802Z" fill="white"/>
<path d="M18.3202 0L19.9709 0.12596L19.9334 0.623163L18.8727 0.543614L18.8263 1.14909L19.7323 1.21981L19.6947 1.7148L18.7887 1.6463L18.7114 2.66501L18.1191 2.61861L18.3202 0Z" fill="white"/>
<path d="M20.3223 1.59549L20.6803 0.234253L21.2549 0.384531L20.8814 1.80543C20.751 2.30263 20.8615 2.51698 21.1466 2.59211C21.4317 2.66724 21.6416 2.53687 21.772 2.03966L22.1454 0.618768L22.7001 0.764609L22.3421 2.13247C22.1211 2.98545 21.6791 3.26389 21.0162 3.09153C20.3533 2.91916 20.0991 2.44847 20.3223 1.59549Z" fill="white"/>
<path d="M23.5755 1.09607L24.1191 1.36787L24.1522 2.84181L24.1279 3.47381H24.1412C24.2406 3.21305 24.3622 2.8617 24.4992 2.58989L24.9124 1.75901L25.4184 2.01093L24.2495 4.36215L23.7036 4.09255L23.6749 2.6142L23.697 1.98441H23.6838C23.5799 2.25621 23.4628 2.5921 23.328 2.86833L22.9125 3.70362L22.4043 3.4517L23.5755 1.09607Z" fill="white"/>
<path d="M25.2943 3.48923C25.8313 2.79978 26.5981 2.75779 27.1506 3.1887C27.273 3.28169 27.3754 3.39856 27.4513 3.53227C27.5273 3.66598 27.5753 3.81372 27.5925 3.96654L27.1108 4.07482C27.1009 3.98269 27.0726 3.89351 27.0274 3.81262C26.9822 3.73174 26.9211 3.66081 26.8478 3.60413C26.5296 3.35664 26.1075 3.43178 25.7827 3.84722C25.4579 4.26266 25.4512 4.67147 25.8424 4.97421C25.9177 5.03819 26.0112 5.07685 26.1097 5.0847L26.3882 4.72671L26.0457 4.45933L26.344 4.07482L27.1019 4.66704L26.3594 5.62389C26.04 5.6446 25.7245 5.54443 25.4755 5.34325C24.912 4.89687 24.7507 4.18753 25.2943 3.48923Z" fill="white"/>
<path d="M28.4633 4.36877L28.8809 4.86377L28.2578 5.93993C28.1738 6.08136 28.0721 6.22279 27.9837 6.36863V6.37968C28.1429 6.31781 28.2997 6.24268 28.4522 6.18302L29.6124 5.74106L30.0278 6.23826L28.0125 7.92212L27.6655 7.50889L28.4058 6.89016C28.6025 6.72442 28.9273 6.5167 29.1395 6.37527L28.5251 6.59625L27.5153 6.95645L27.2943 6.70453L27.8268 5.7742L28.176 5.22617C27.997 5.40959 27.734 5.69244 27.5396 5.85596L26.7993 6.47471L26.459 6.06589L28.4633 4.36877Z" fill="white"/>
<path d="M29.3029 7.70557L30.5537 7.05591L30.8277 7.58404L29.5239 8.26023C29.0665 8.49668 28.9825 8.72209 29.1195 8.98284C29.2565 9.2436 29.4908 9.31431 29.9482 9.07786L31.252 8.40166L31.5172 8.90991L30.2642 9.55959C29.4819 9.96399 28.9759 9.82256 28.6621 9.21929C28.3483 8.61602 28.5185 8.11218 29.3029 7.70557Z" fill="white"/>
<path d="M32.2087 11.0269L32.3722 11.7185L30.0033 13.124L29.8597 12.5118L31.075 11.8732C31.3159 11.7406 31.601 11.6014 31.8529 11.471V11.4556C31.5678 11.4556 31.2518 11.4556 30.98 11.4556L29.6055 11.4246L29.4663 10.8324L32.2087 11.0269ZM30.6463 11.1064L30.9358 12.3373L30.4939 12.4433L30.1867 11.2125L30.6463 11.1064Z" fill="white"/>
<path d="M32.5781 12.9604L32.6377 13.5505L30.0235 13.8201L29.9639 13.2278L32.5781 12.9604Z" fill="white"/>
<path d="M31.1547 15.137L31.5215 15.5591L30.0122 16.348L30.0343 15.6851L31.1547 15.137ZM32.7015 14.3503L32.6706 15.2961C32.6529 15.853 32.4496 16.3016 31.8198 16.2817C31.19 16.2618 30.9735 15.7956 30.9911 15.2387L31.0022 14.8873L30.0586 14.8564L30.0785 14.262L32.7015 14.3503ZM31.464 15.2077C31.464 15.5193 31.5812 15.6917 31.8397 15.7005C32.0982 15.7094 32.1911 15.5436 32.2021 15.2321V14.9293L31.464 14.9028V15.2077Z" fill="white"/>
<path d="M11.8237 28.1572C21.2595 32.8817 26.5653 23.2956 32.5958 22.8912C28.0127 19.6384 19.2641 29.8366 11.8237 28.1572Z" fill="white"/>
<path d="M24.7798 18.5688C23.6749 19.0241 22.5456 19.5632 21.4164 20.1157C20.0464 20.7786 18.6719 21.4593 17.3217 22.0272C16.0625 22.5841 14.7445 22.9969 13.3927 23.258C9.85702 23.8613 6.74121 22.6349 4.63086 16.8695C8.49137 38.9962 27.5818 17.6142 34.463 19.1522C31.8047 16.4474 28.3928 17.0772 24.7798 18.5688Z" fill="#F8D113"/>
<path d="M21.0295 16.2751C19.9418 16.611 18.8905 17.0552 17.8916 17.601C17.2905 17.9082 16.685 18.2286 16.0707 18.5313C15.2539 18.9502 14.4057 19.3048 13.5339 19.592C12.1947 20.0097 10.8202 20.1555 9.40596 19.7356C8.21489 19.3821 6.99508 18.6307 5.73991 17.2916C5.488 17.0242 5.23387 16.7303 4.97754 16.4077C5.1558 16.7583 5.33626 17.0905 5.51893 17.4043C6.15553 18.558 6.9826 19.5958 7.96518 20.4737C8.6416 21.08 9.44633 21.5254 10.3192 21.7769C11.192 22.0283 12.1104 22.0791 13.0057 21.9256C14.2318 21.7126 15.4219 21.3287 16.5414 20.7853C17.5689 20.319 18.5943 19.771 19.6019 19.2495C20.9499 18.5534 22.2714 17.9037 23.5376 17.548C24.3002 17.3141 25.1003 17.2271 25.8954 17.2916C24.2978 15.9238 22.6736 15.8199 21.0295 16.2751Z" fill="white"/>
<path d="M14.2101 14.0477C14.2387 14.0509 14.2676 14.0509 14.2963 14.0477C14.3777 14.0454 14.4569 14.0207 14.5251 13.9762C14.5934 13.9317 14.648 13.8693 14.683 13.7958C14.7226 13.7205 14.7342 13.6336 14.7155 13.5505C14.6969 13.4675 14.6493 13.3939 14.5813 13.3427C13.8698 12.7881 12.4246 11.6456 10.7584 10.2026C9.67117 9.26127 9.14523 8.38839 9.19385 7.61055C9.21374 7.38211 9.2817 7.16046 9.39329 6.96014C9.50488 6.75982 9.65755 6.58536 9.84132 6.44821L10.1838 6.22723L9.78165 6.14326C9.69105 6.12337 7.5343 5.7013 6.23273 7.4404C5.56979 8.32432 5.29136 9.73858 6.1355 10.9186C7.14537 12.3351 12.1174 13.5792 14.2101 14.0477Z" fill="white"/>
<path d="M15.1602 13.6499H15.1978C15.2826 13.6451 15.3632 13.6109 15.4257 13.5533C15.4881 13.4957 15.5287 13.4181 15.5403 13.3339C15.664 12.45 15.9314 10.6181 16.3491 8.4525C16.6209 7.04044 17.1115 6.1499 17.8098 5.80075C18.0167 5.70354 18.2419 5.65149 18.4705 5.64806C18.6992 5.64463 18.9259 5.68991 19.1356 5.78087L19.5025 5.96429L19.3765 5.57315C19.3478 5.48476 18.6451 3.40092 16.475 3.14238C15.3834 3.01421 14.0155 3.47605 13.4167 4.7953C12.6985 6.37751 14.1084 11.3054 14.7426 13.3516C14.7707 13.4397 14.8265 13.5164 14.9018 13.5702C14.9771 13.624 15.0677 13.6519 15.1602 13.6499Z" fill="white"/>
<path d="M25.3256 9.87782C24.8836 8.87015 23.8053 7.91552 22.3645 8.05695C20.6342 8.22489 17.061 11.9108 15.6202 13.4864C15.5565 13.5587 15.519 13.6504 15.5138 13.7466C15.5086 13.8428 15.536 13.938 15.5915 14.0168C15.6252 14.0676 15.6708 14.1094 15.7243 14.1387C15.7778 14.168 15.8377 14.1837 15.8986 14.1847C15.9465 14.1848 15.9939 14.175 16.0378 14.156C16.8731 13.8157 18.5857 13.1373 20.6784 12.4147C22.0352 11.944 23.0539 11.9263 23.7036 12.3572C23.8914 12.4884 24.0493 12.6578 24.167 12.8543C24.2847 13.0508 24.3595 13.27 24.3864 13.4975L24.4107 13.9085L24.6848 13.6035C24.7444 13.5328 26.2095 11.8821 25.3256 9.87782Z" fill="white"/>
<path d="M14.6211 14.3814C14.5778 14.3065 14.5111 14.2479 14.4312 14.2147C14.3513 14.1816 14.2627 14.1757 14.1791 14.198C12.5991 14.6112 8.88667 15.6719 6.53987 16.3834L6.26807 16.4652L6.46695 16.6685C7.52323 17.7447 8.57508 18.4363 9.6844 18.759C9.88183 18.8178 10.0825 18.865 10.2855 18.9004L10.3628 18.9159L10.4247 18.8673C11.8965 17.6322 13.283 16.2988 14.5747 14.8764C14.6347 14.8099 14.6717 14.7258 14.6801 14.6366C14.6884 14.5474 14.6678 14.4579 14.6211 14.3814Z" fill="white"/>
<path d="M15.4721 14.9758C15.4471 14.8918 15.3954 14.8184 15.3248 14.7665C15.2542 14.7147 15.1686 14.6873 15.081 14.6885C14.9944 14.6875 14.9097 14.7144 14.8396 14.7654C14.7695 14.8164 14.7178 14.8886 14.6921 14.9714C14.4446 15.736 14.0733 16.927 13.7131 18.2507L13.627 18.5689L13.9363 18.4584C14.6107 18.2106 15.2703 17.9244 15.9119 17.601L16.1837 17.4662L16.1483 17.3314C15.8942 16.3635 15.6401 15.5172 15.4721 14.9758Z" fill="white"/>
<path d="M16.2652 14.3062L16 14.2465C15.9151 14.228 15.8265 14.2369 15.7469 14.2719C15.6673 14.3069 15.6009 14.3663 15.5572 14.4414C15.5135 14.5165 15.4947 14.6036 15.5036 14.6901C15.5125 14.7766 15.5486 14.858 15.6067 14.9227C15.9867 15.3448 16.59 16.0011 17.3038 16.7413L17.3922 16.8342L17.717 16.6662C18.5813 16.2156 19.5066 15.8933 20.4638 15.7094L21.1267 15.5812L20.477 15.3757C19.1025 14.9359 17.2618 14.5271 16.2652 14.3062Z" fill="white"/>
<path d="M39.689 3.63953H53.3344V7.00946H43.7019V13.4179H51.9047V16.7878H43.7019V26.2192H39.689V3.63953Z" fill="white"/>
<path d="M55.2944 16.8585V3.63956H59.3008V17.1591C59.3008 22.0759 61.1371 23.6912 63.8706 23.6912C66.6042 23.6912 68.5377 22.0759 68.5377 17.1591V3.63513H72.3938V16.8541C72.3938 24.2702 69.1078 27.1716 63.8728 27.1716C58.6379 27.1716 55.2944 24.2746 55.2944 16.8585Z" fill="white"/>
<path d="M76.1221 3.63953H80.2367L87.2528 16.3304L89.5863 21.1499H89.7233C89.5311 18.8164 89.2129 15.9569 89.2129 13.4444V3.63953H93.0248V26.2192H88.9101L81.8963 13.5062L79.5627 8.70658H79.4235C79.618 11.0976 79.9362 13.8178 79.9362 16.3304V26.2192H76.1221V3.63953Z" fill="white"/>
<path d="M95.6831 15.0044C95.6831 7.61711 100.366 3.22404 106.372 3.22404C107.644 3.20759 108.906 3.45293 110.08 3.94484C111.253 4.43675 112.313 5.16472 113.193 6.08351L111.065 8.66676C109.932 7.56187 108.606 6.70447 106.507 6.70447C102.503 6.70447 99.8088 9.81143 99.8088 14.8807C99.8088 20.0317 102.2 23.1519 106.728 23.1519C107.985 23.1519 109.227 22.794 109.945 22.1575V17.2827H105.682V13.9968H113.525V23.9541C112.02 25.4722 109.41 26.6324 106.317 26.6324C100.237 26.6324 95.6831 22.4758 95.6831 15.0044Z" fill="white"/>
<path d="M116.654 3.63953H121.184L125.175 14.673C125.672 16.1094 126.127 17.6275 126.624 19.1059H126.761C127.259 17.6275 127.687 16.1094 128.185 14.673L132.094 3.63953H136.622V26.2192H132.942V15.8884C132.942 13.8024 133.26 10.8059 133.453 8.70658H133.316L131.493 13.9548L127.778 24.0978H125.402L121.672 13.9548L119.876 8.70658H119.739C119.931 10.7993 120.249 13.8024 120.249 15.8884V26.2192H116.645L116.654 3.63953Z" fill="white"/>
<path d="M140.365 16.8585V3.63956H144.371V17.1591C144.371 22.0759 146.207 23.6912 148.941 23.6912C151.674 23.6912 153.608 22.0759 153.608 17.1591V3.63513H157.471V16.8541C157.471 24.2702 154.185 27.1716 148.95 27.1716C143.715 27.1716 140.365 24.2746 140.365 16.8585Z" fill="white"/>
<path d="M181.368 26.2192H185.608L178.243 3.63953H173.547L166.191 26.2192H170.288L172.056 20.1003H179.629L181.368 26.2192ZM172.951 16.9579L173.744 14.2045C174.462 11.8135 175.125 9.25903 175.746 6.75975H175.885C176.548 9.23914 177.211 11.8135 177.929 14.2045L178.718 16.9579H172.951Z" fill="white"/>
<path d="M187.456 3.63953H191.46V26.2192H187.456V3.63953Z" fill="white"/>
<path d="M211.408 26.2192L206.009 16.8099C208.721 15.8663 210.524 13.7626 210.524 10.3374C210.524 5.29687 206.906 3.63953 202.211 3.63953H194.596V26.2192H198.6V17.3933H202.04L206.902 26.2192H211.408ZM198.606 6.84373H201.797C204.891 6.84373 206.575 7.7409 206.575 10.3374C206.575 12.9339 204.891 14.1891 201.797 14.1891H198.606V6.84373Z" fill="white"/>
</g>
<defs>
<clipPath id="clip0_151_501">
<rect width="210.41" height="32" fill="white" transform="translate(1)"/>
</clipPath>
</defs>
</svg>
