<svg width="124" height="28" viewBox="0 0 124 28" fill="none" xmlns="http://www.w3.org/2000/svg">
<g clip-path="url(#clip0_318_529)">
<path d="M3.02086 18.9679C2.15322 17.0713 1.73834 14.9989 1.80896 12.9144C1.87958 10.83 2.43378 8.79045 3.42779 6.9569C4.4218 5.12334 5.82842 3.54595 7.5366 2.34923C9.24477 1.15252 11.2078 0.369256 13.2705 0.0612793C10.9336 0.180519 8.66399 0.884661 6.66992 2.10911C4.67586 3.33356 3.02117 5.03912 1.85765 7.06934C0.69412 9.09955 0.0590066 11.3894 0.0105639 13.7289C-0.0378787 16.0684 0.501898 18.3826 1.58039 20.4593C2.65887 22.5359 4.24154 24.3085 6.18321 25.6144C8.12488 26.9204 10.3634 27.7179 12.6934 27.9338C15.0234 28.1496 17.3703 27.777 19.5189 26.85C21.6675 25.923 23.5488 24.4714 24.9905 22.6282C23.4758 24.2204 21.5941 25.4172 19.5099 26.1139C17.4257 26.8106 15.2025 26.9861 13.0349 26.625C10.8672 26.2638 8.821 25.377 7.07529 24.0422C5.32959 22.7074 3.93752 20.9651 3.02086 18.9679Z" fill="#00A4DA"/>
<path d="M15.1583 0L16.6037 0.111033L16.5692 0.543689L15.6426 0.472857L15.6024 1.00506L16.395 1.06441L16.3605 1.49897L15.568 1.43963L15.4991 2.32982L14.9822 2.28962L15.1583 0Z" fill="#00A4DA"/>
<path d="M16.9099 1.3936L17.2239 0.200928L17.7255 0.333022L17.3981 1.57738C17.2852 2.01386 17.3809 2.19956 17.6297 2.26465C17.8786 2.32974 18.0643 2.2187 18.1792 1.78413L18.5065 0.539774L18.9909 0.666125L18.6769 1.8588C18.4855 2.60541 18.0911 2.85045 17.5168 2.69922C16.9425 2.54798 16.7127 2.14022 16.9099 1.3936Z" fill="#00A4DA"/>
<path d="M19.747 0.953369L20.2237 1.19076L20.2505 2.48106L20.2295 3.03432H20.2429C20.329 2.80651 20.4343 2.5002 20.5549 2.25707L20.9167 1.52961L21.3609 1.74976L20.3367 3.80774L19.8676 3.5761L19.8408 2.28388L19.8619 1.73253H19.8485C19.7566 1.96992 19.657 2.26473 19.5364 2.49829L19.1746 3.22768L18.719 3.01135L19.747 0.953369Z" fill="#00A4DA"/>
<path d="M21.2517 3.04573C21.7208 2.44461 22.3908 2.40441 22.8771 2.78154C22.9833 2.86366 23.072 2.96631 23.1378 3.0834C23.2035 3.20048 23.2451 3.3296 23.2599 3.46307L22.8407 3.55687C22.8316 3.47652 22.8064 3.39882 22.7666 3.32842C22.7268 3.25803 22.6732 3.19639 22.6091 3.1472C22.3296 2.92895 21.9601 2.99596 21.6787 3.35969C21.3972 3.72343 21.3896 4.08142 21.7303 4.34561C21.7963 4.40107 21.878 4.43454 21.9639 4.44133L22.2089 4.12737L21.9065 3.89381L22.1668 3.55879L22.833 4.07567L22.1821 4.91227C21.9051 4.93006 21.6316 4.84254 21.4164 4.66722C20.9186 4.2786 20.777 3.65833 21.2517 3.04573Z" fill="#00A4DA"/>
<path d="M24.0199 3.80396L24.3837 4.23852L23.8419 5.18232C23.7672 5.30484 23.6811 5.42928 23.6007 5.5652L23.6102 5.57668C23.7481 5.52117 23.8859 5.45608 24.0199 5.40439L25.0346 5.02151L25.3983 5.45608L23.639 6.934L23.3346 6.57217L23.9797 6.02849C24.152 5.88491 24.4353 5.70304 24.621 5.5786L24.6115 5.56712L24.0793 5.7643L23.191 6.08783L22.9995 5.86768L23.4647 5.05214L23.7634 4.56014L23.7538 4.55057C23.5988 4.71138 23.3709 4.95833 23.1986 5.10383L22.5516 5.64561L22.2529 5.28952L24.0199 3.80396Z" fill="#00A4DA"/>
<path d="M24.7552 6.7252L25.8502 6.15088L26.0895 6.61034L24.9409 7.20571C24.5407 7.41247 24.4699 7.60966 24.5886 7.83747C24.7073 8.06528 24.9141 8.12846 25.3123 7.91979L26.4609 7.32632L26.6906 7.77046L25.5975 8.34478C24.9121 8.70086 24.4699 8.57834 24.1962 8.05188C23.9224 7.52542 24.0794 7.08128 24.7552 6.7252Z" fill="#00A4DA"/>
<path d="M27.3032 9.62187L27.4468 10.2268L25.3773 11.4616L25.251 10.9256L26.3135 10.3647C26.5221 10.2479 26.7729 10.1254 26.9912 10.0105V9.9971C26.7423 9.9971 26.4666 9.9971 26.2254 9.9971L25.0232 9.97221L24.9006 9.45532L27.3032 9.62187ZM25.9363 9.69462L26.1909 10.7705L25.8081 10.8643L25.5515 9.78843L25.9363 9.69462Z" fill="#00A4DA"/>
<path d="M27.6266 11.3008L27.6821 11.8177L25.3963 12.0589L25.3408 11.542L27.6266 11.3008Z" fill="#00A4DA"/>
<path d="M26.3881 13.2055L26.7097 13.575L25.3926 14.268L25.4098 13.6937L26.3881 13.2055ZM27.7435 12.5144L27.7186 13.3415C27.7052 13.8277 27.5271 14.2221 26.9777 14.2068C26.4283 14.1914 26.233 13.7837 26.2483 13.2974L26.2579 12.9892L25.4309 12.9643L25.4462 12.4436L27.7435 12.5144ZM26.6618 13.2668C26.6618 13.5406 26.7671 13.6899 26.993 13.6975C27.2189 13.7052 27.2993 13.5597 27.3089 13.2859V13.0198L26.6618 13.0007V13.2668Z" fill="#00A4DA"/>
<path d="M9.47241 24.6365C17.7292 28.7697 22.3716 20.3827 27.6381 20.0266C23.637 17.1799 15.9833 26.1067 9.47241 24.6365Z" fill="#00A4DA"/>
<path d="M20.8077 16.2455C19.839 16.6456 18.855 17.1146 17.8672 17.5951C16.6669 18.1695 15.4646 18.7725 14.2815 19.2683C13.1803 19.7562 12.0276 20.1184 10.8452 20.348C7.79938 20.8707 5.10199 19.8312 3.25268 14.9609C3.25142 14.9571 3.24899 14.9538 3.24572 14.9514C3.24246 14.949 3.23853 14.9478 3.2345 14.9478C3.23046 14.9478 3.22654 14.949 3.22327 14.9514C3.22001 14.9538 3.21757 14.9571 3.21631 14.9609C6.67754 33.9728 23.2811 15.4051 29.2789 16.7451C26.951 14.3885 23.9703 14.9399 20.8077 16.2455Z" fill="#F8D113"/>
<path d="M17.5281 14.2336C16.5759 14.5267 15.6556 14.9147 14.781 15.3918C14.2564 15.6598 13.7242 15.9412 13.1882 16.2054C12.4734 16.5727 11.7309 16.8831 10.9675 17.1339C9.79587 17.4977 8.59554 17.6278 7.35692 17.2583C6.31549 16.9501 5.25108 16.2877 4.1503 15.1219C3.92823 14.8858 3.70552 14.6305 3.48218 14.3561C3.63661 14.6637 3.79487 14.9547 3.95695 15.2291C4.51285 16.2405 5.23585 17.1505 6.09533 17.9207C6.68776 18.451 7.39233 18.8406 8.15642 19.0603C8.92052 19.2801 9.7244 19.3244 10.508 19.19C11.5815 19.0041 12.6235 18.6683 13.6036 18.1926C14.5034 17.7848 15.3993 17.3062 16.2838 16.8525C17.463 16.2437 18.6193 15.6751 19.7297 15.3631C20.3931 15.1576 21.0894 15.079 21.7819 15.1314C20.3863 13.9369 18.9716 13.8392 17.5281 14.2336Z" fill="#00A4DA"/>
<path d="M11.559 12.2886C11.5841 12.2946 11.6098 12.2978 11.6356 12.2982C11.707 12.2967 11.7766 12.2753 11.8364 12.2364C11.8963 12.1975 11.9441 12.1426 11.9745 12.078C12.009 12.0117 12.0189 11.9353 12.0024 11.8624C11.986 11.7895 11.9442 11.7248 11.8845 11.6798C11.2623 11.1955 9.99688 10.1942 8.54002 8.93264C7.58282 8.10944 7.12911 7.3456 7.17123 6.66408C7.18911 6.46352 7.24959 6.2691 7.34863 6.09379C7.44767 5.91849 7.58299 5.76635 7.74555 5.64753L8.04611 5.45609L7.69386 5.38143C7.61346 5.36611 5.72777 4.98515 4.58679 6.51858C4.01247 7.28434 3.7636 8.5287 4.50256 9.56056C5.37935 10.7915 9.73078 11.8789 11.559 12.2886Z" fill="#00A4DA"/>
<path d="M12.4015 11.9402H12.4341C12.5086 11.936 12.5794 11.906 12.6342 11.8554C12.689 11.8047 12.7245 11.7366 12.7346 11.6626C12.8418 10.8816 13.0754 9.28687 13.4411 7.39161C13.6784 6.15683 14.1092 5.37767 14.7199 5.07328C14.9015 4.98789 15.0993 4.94219 15.3 4.93922C15.5007 4.93625 15.6997 4.97607 15.8838 5.05604L16.2054 5.21686L16.0944 4.87418C16.0676 4.7976 15.4531 2.97318 13.5559 2.75302C12.5987 2.64199 11.4041 3.04593 10.8758 4.20031C10.2459 5.58442 11.4807 9.89565 12.0397 11.6856C12.0663 11.7603 12.1153 11.8249 12.1801 11.8705C12.2449 11.9161 12.3223 11.9404 12.4015 11.9402Z" fill="#00A4DA"/>
<path d="M21.2919 8.64165C20.909 7.75911 19.9614 6.91869 18.6998 7.04696C17.1855 7.19436 14.0689 10.4182 12.7996 11.7985C12.7449 11.8625 12.7128 11.9428 12.7083 12.0269C12.7038 12.111 12.7272 12.1942 12.7748 12.2637C12.8043 12.3079 12.8441 12.3442 12.8908 12.3696C12.9375 12.3949 12.9896 12.4085 13.0428 12.4092C13.0843 12.4094 13.1254 12.4009 13.1634 12.3843C13.8947 12.0876 15.3937 11.4922 17.2162 10.8528C18.405 10.4431 19.2952 10.4259 19.8638 10.803C20.0284 10.9174 20.1668 11.0655 20.2698 11.2374C20.3727 11.4094 20.438 11.6013 20.4611 11.8004L20.4821 12.1603L20.7233 11.8923C20.7769 11.8406 22.05 10.3952 21.2919 8.64165Z" fill="#00A4DA"/>
<path d="M11.9192 12.5814C11.8815 12.5166 11.8238 12.4658 11.7547 12.4368C11.6856 12.4078 11.6089 12.4021 11.5363 12.4205C10.1541 12.7824 6.90726 13.7109 4.85311 14.3349L4.61572 14.4077L4.78993 14.5838C5.71267 15.5257 6.6335 16.1249 7.6041 16.414C7.77729 16.4647 7.95302 16.5062 8.13056 16.5384L8.19757 16.5499L8.25117 16.5078C9.5426 15.429 10.7579 14.2623 11.8885 13.0159C11.9404 12.9568 11.9715 12.8823 11.9771 12.8038C11.9826 12.7253 11.9623 12.6472 11.9192 12.5814Z" fill="#00A4DA"/>
<path d="M12.6636 13.1021C12.6417 13.0288 12.5967 12.9646 12.5353 12.9191C12.4739 12.8735 12.3993 12.8491 12.3229 12.8494C12.2466 12.8487 12.1722 12.8725 12.1105 12.9173C12.0488 12.9621 12.0032 13.0255 11.9802 13.0982C11.7639 13.7683 11.4403 14.8078 11.1245 15.9698L11.0498 16.2493L11.3197 16.1498C11.9083 15.9314 12.4836 15.6789 13.0427 15.3936L13.282 15.2749L13.2494 15.1562C13.035 14.3196 12.8111 13.5749 12.6636 13.1021Z" fill="#00A4DA"/>
<path d="M13.3586 12.5165L13.127 12.4648C13.0523 12.4473 12.9741 12.4542 12.9037 12.4845C12.8333 12.5148 12.7745 12.5669 12.7359 12.6331C12.6973 12.6993 12.681 12.7762 12.6894 12.8524C12.6978 12.9286 12.7303 13 12.7824 13.0563C13.1155 13.4239 13.6419 14.0001 14.2679 14.6472L14.3445 14.7276L14.6298 14.5802C15.3887 14.1872 16.2006 13.9061 17.04 13.7455L17.6258 13.6345L17.0515 13.4545C15.8473 13.0678 14.2297 12.7098 13.3586 12.5165Z" fill="#00A4DA"/>
<path d="M55.3778 14.7772H45.8824V17.2009H50.4425C51.1514 17.1858 51.8507 17.366 52.4641 17.7216C53.0276 18.0526 53.4907 18.5303 53.8042 19.1038C54.1153 19.6716 54.2767 20.3094 54.2732 20.9569C54.2784 21.6125 54.1171 22.2588 53.8042 22.8349C53.4907 23.4079 53.0275 23.8849 52.4641 24.2152C51.8511 24.5718 51.1515 24.752 50.4425 24.7359H38.9733C38.2643 24.7525 37.5645 24.5722 36.9517 24.2152C36.3879 23.8855 35.9246 23.4083 35.6116 22.8349C35.2973 22.2592 35.1352 21.6128 35.1407 20.9569C35.1369 20.3091 35.299 19.6712 35.6116 19.1038C35.9245 18.5299 36.3878 18.0521 36.9517 17.7216C37.5649 17.3655 38.2644 17.1853 38.9733 17.2009H43.5315V14.7772H34.0342V12.7422H55.3778V14.7772ZM50.2549 8.8426H54.367V10.8738H35.0469V8.84068H39.0671L38.5502 5.42539H40.9471L41.464 8.84068H47.881L48.3979 5.42539H50.7947L50.2549 8.8426ZM35.2824 2.90796H54.1354V4.93913H35.2824V2.90796ZM51.3633 19.724C50.966 19.3912 50.4588 19.2185 49.9409 19.2397H39.4117C38.9045 19.2201 38.4087 19.3931 38.0238 19.724C37.8504 19.874 37.7121 20.0604 37.6188 20.2698C37.5255 20.4792 37.4795 20.7066 37.4839 20.9359C37.4767 21.1744 37.5212 21.4118 37.6144 21.6315C37.7076 21.8513 37.8473 22.0482 38.0238 22.2089C38.4051 22.5472 38.9024 22.7249 39.4117 22.7048H49.9409C50.4609 22.7265 50.9696 22.5492 51.3633 22.2089C51.5428 22.05 51.6853 21.8537 51.7805 21.6337C51.8758 21.4137 51.9216 21.1755 51.9147 20.9359C51.9202 20.7055 51.8742 20.4769 51.7801 20.2666C51.6861 20.0563 51.5463 19.8696 51.371 19.7202L51.3633 19.724Z" fill="#008FC9"/>
<path d="M68.5643 24.9311H66.2134V17.8785H56.718V15.8511H78.0655V17.8862H68.5701L68.5643 24.9311ZM76.6048 12.8877H58.1749V3.17017H76.6029L76.6048 12.8877ZM60.5238 5.20708V10.8527H74.2501V5.20708H60.5238Z" fill="#008FC9"/>
<path d="M93.7367 6.58754H79.6353V4.55637H85.5105V2.0083H87.8614V4.55637H93.7367V6.58754ZM80.6212 9.507C80.9146 8.97151 81.3497 8.5271 81.8789 8.22244C82.4039 7.92419 82.9982 7.76967 83.6019 7.77447H89.7586C90.3622 7.7703 90.9564 7.92478 91.4816 8.22244C92.0107 8.5271 92.4459 8.97151 92.7393 9.507C93.0476 10.1111 93.2082 10.7796 93.2082 11.4578C93.2082 12.1359 93.0476 12.8045 92.7393 13.4085C92.4464 13.9445 92.0112 14.389 91.4816 14.6931C90.9564 14.9908 90.3622 15.1452 89.7586 15.1411H83.6172C83.0135 15.1459 82.4192 14.9914 81.8942 14.6931C81.3646 14.389 80.9294 13.9445 80.6365 13.4085C80.3282 12.8045 80.1675 12.1359 80.1675 11.4578C80.1675 10.7796 80.3282 10.1111 80.6365 9.507H80.6212ZM81.3505 18.6961C81.7426 18.0808 82.3008 17.589 82.9606 17.2775C83.6688 16.9407 84.4449 16.7711 85.2291 16.7817H95.2414C96.0292 16.7719 96.8089 16.9415 97.5215 17.2775C98.1856 17.5871 98.7479 18.0791 99.143 18.6961C99.5273 19.3232 99.7308 20.0444 99.7308 20.7799C99.7308 21.5155 99.5273 22.2367 99.143 22.8638C98.7452 23.4813 98.1839 23.9764 97.5215 24.2938C96.811 24.6372 96.0305 24.8108 95.2414 24.8011H85.2291C84.4437 24.8117 83.6667 24.638 82.9606 24.2938C82.3025 23.9745 81.7453 23.4796 81.3505 22.8638C80.9662 22.2367 80.7628 21.5155 80.7628 20.7799C80.7628 20.0444 80.9662 19.3232 81.3505 18.6961ZM88.989 13.0984C89.5844 13.0984 90.0477 12.9453 90.375 12.637C90.5315 12.4815 90.6558 12.2966 90.7405 12.0929C90.8253 11.8892 90.8689 11.6708 90.8689 11.4501C90.8689 11.2295 90.8253 11.011 90.7405 10.8073C90.6558 10.6036 90.5315 10.4187 90.375 10.2632C90.0477 9.95688 89.5844 9.80373 88.989 9.80373H84.383C83.7882 9.80373 83.3256 9.95688 82.995 10.2632C82.839 10.419 82.7152 10.604 82.6307 10.8076C82.5462 11.0113 82.5027 11.2296 82.5027 11.4501C82.5027 11.6706 82.5462 11.8889 82.6307 12.0926C82.7152 12.2963 82.839 12.4813 82.995 12.637C83.3243 12.9459 83.7869 13.0997 84.383 13.0984H88.989ZM95.1036 22.7738C95.6967 22.7959 96.2776 22.602 96.7385 22.2282C96.9489 22.0531 97.1164 21.8321 97.2283 21.5822C97.3401 21.3324 97.3932 21.0602 97.3836 20.7866C97.3942 20.5149 97.3414 20.2444 97.2295 19.9965C97.1175 19.7486 96.9494 19.5302 96.7385 19.3585C96.2743 18.9918 95.6947 18.8025 95.1036 18.8244H85.3689C84.7857 18.8046 84.2146 18.994 83.7589 19.3585C83.5479 19.5302 83.3799 19.7486 83.2679 19.9965C83.1559 20.2444 83.1031 20.5149 83.1137 20.7866C83.1037 21.0592 83.1555 21.3304 83.2653 21.5801C83.375 21.8297 83.5398 22.0513 83.7474 22.2282C84.2025 22.603 84.7797 22.7972 85.3689 22.7738H95.1036ZM99.0989 15.9662H96.7462V2.59028H99.0951V7.55623H102.105V9.59315H99.0951L99.0989 15.9662Z" fill="#008FC9"/>
<path d="M123.423 14.2679H102.082V12.2329H110.402V7.75131H112.752V12.2329H123.423V14.2679ZM103.655 18.5581C103.957 17.9415 104.42 17.4182 104.995 17.0438C105.597 16.6562 106.301 16.4563 107.017 16.4695H118.486C119.202 16.4563 119.906 16.6562 120.508 17.0438C121.083 17.4182 121.546 17.9415 121.848 18.5581C122.162 19.1901 122.324 19.8872 122.319 20.5931C122.325 21.3072 122.164 22.0128 121.848 22.653C121.546 23.2696 121.083 23.7929 120.508 24.1673C119.906 24.5548 119.202 24.7547 118.486 24.7416H107.017C106.301 24.7547 105.597 24.5548 104.995 24.1673C104.42 23.7929 103.957 23.2696 103.655 22.653C103.34 22.0123 103.18 21.3069 103.186 20.5931C103.181 19.8874 103.342 19.1905 103.655 18.5581ZM119.568 4.93906H103.561V2.90405H122.083L121.472 10.8278H119.122L119.568 4.93906ZM117.994 22.7009C118.261 22.7093 118.526 22.6596 118.771 22.5551C119.016 22.4507 119.236 22.2939 119.415 22.0959C119.79 21.6762 119.988 21.1272 119.968 20.5644C119.977 20.2938 119.933 20.0239 119.838 19.7703C119.743 19.5167 119.599 19.2843 119.415 19.0865C119.231 18.8962 119.01 18.7467 118.766 18.6477C118.521 18.5487 118.258 18.5025 117.994 18.5121H107.465C107.206 18.5034 106.949 18.5501 106.71 18.6492C106.471 18.7483 106.255 18.8974 106.079 19.0865C105.713 19.4899 105.519 20.0202 105.539 20.5644C105.518 21.1249 105.711 21.6723 106.079 22.0959C106.251 22.2927 106.464 22.449 106.704 22.5536C106.944 22.6582 107.203 22.7085 107.465 22.7009H117.994Z" fill="#008FC9"/>
</g>
<defs>
<clipPath id="clip0_318_529">
<rect width="123.421" height="28" fill="white"/>
</clipPath>
</defs>
</svg>
