<svg width="85" height="20" viewBox="0 0 85 20" fill="none" xmlns="http://www.w3.org/2000/svg">
<g clip-path="url(#clip0_340_778)">
<path d="M2.07522 13.0196C1.47768 11.7179 1.19195 10.2956 1.24059 8.86491C1.28923 7.43427 1.6709 6.03447 2.35547 4.77604C3.04005 3.5176 4.00879 2.43498 5.1852 1.61363C6.36162 0.792286 7.71352 0.25471 9.13416 0.043335C7.52487 0.125904 5.96214 0.609823 4.5893 1.45071C3.21645 2.29161 2.07744 3.46255 1.27672 4.85615C0.475998 6.24975 0.0391998 7.82141 0.0063901 9.42697C-0.0264196 11.0325 0.345807 12.6206 1.08893 14.0455C1.83205 15.4705 2.92229 16.6867 4.25964 17.5826C5.597 18.4784 7.13866 19.0254 8.74325 19.1732C10.3478 19.321 11.964 19.0649 13.4434 18.4285C14.9229 17.792 16.2183 16.7956 17.2109 15.5305C16.1676 16.6239 14.8714 17.4458 13.4356 17.9244C11.9998 18.403 10.4682 18.5237 8.97478 18.276C7.48135 18.0282 6.07159 17.4195 4.8688 16.5032C3.66602 15.5869 2.70686 14.3908 2.07522 13.0196Z" fill="#969696"/>
<path d="M10.4382 0L11.4349 0.0762096L11.4112 0.374464L10.7731 0.32585L10.7441 0.689808L11.2899 0.731854L11.2675 1.03012L10.7217 0.98807L10.6742 1.59904L10.3169 1.57277L10.4382 0Z" fill="#969696"/>
<path d="M11.6458 0.957852L11.862 0.139282L12.2074 0.229943L11.982 1.08399C11.9029 1.38225 11.9701 1.51102 12.1415 1.55569C12.3129 1.60036 12.4408 1.52284 12.5186 1.22458L12.744 0.370533L13.0789 0.458564L12.8627 1.27714C12.7309 1.78957 12.4593 1.95775 12.0624 1.85395C11.6656 1.75015 11.51 1.47028 11.6458 0.957852Z" fill="#969696"/>
<path d="M13.5986 0.65564L13.9269 0.817257L13.9466 1.70284L13.9321 2.08255H13.9414C14.0007 1.92488 14.0732 1.71466 14.1563 1.5478L14.4055 1.0485L14.71 1.20092L14.006 2.61338L13.6777 2.45046L13.6592 1.56225L13.6724 1.18515H13.6645C13.6012 1.34939 13.5327 1.55042 13.4496 1.71072L13.2004 2.21264L12.8945 2.06154L13.5986 0.65564Z" fill="#969696"/>
<path d="M14.6363 2.09179C14.958 1.67791 15.4207 1.65163 15.7543 1.90916C15.8276 1.96542 15.8887 2.03584 15.934 2.11622C15.9794 2.1966 16.0079 2.28527 16.018 2.37692L15.7279 2.44261C15.7223 2.38725 15.7054 2.33362 15.6782 2.28504C15.651 2.23645 15.6141 2.19394 15.5697 2.16012C15.3772 2.01164 15.1228 2.05632 14.9276 2.30596C14.7325 2.55561 14.7286 2.80131 14.9646 2.98395C15.0101 3.0217 15.0663 3.04422 15.1254 3.04833L15.2928 2.83416L15.0859 2.67386L15.2652 2.44392L15.724 2.79737L15.2757 3.37286C15.0851 3.38404 14.8971 3.32409 14.7483 3.20469C14.4069 2.93796 14.3093 2.51093 14.6363 2.09179Z" fill="#969696"/>
<path d="M16.5412 2.61206L16.7931 2.91032L16.4186 3.55677C16.3685 3.64086 16.3079 3.72758 16.2538 3.81955C16.3487 3.78145 16.4437 3.73677 16.536 3.7013L17.2347 3.43851L17.4852 3.73546L16.2723 4.74981L16.0758 4.50542L16.5215 4.13358C16.6401 4.03504 16.8353 3.9089 16.9631 3.82349L16.9565 3.81561L16.5861 3.95751L15.9769 4.17563L15.8451 4.02321L16.1642 3.46348L16.3712 3.12711L16.3646 3.11923C16.2578 3.23091 16.1009 3.40041 15.9822 3.49896L15.5353 3.86817L15.3296 3.62247L16.5412 2.61206Z" fill="#969696"/>
<path d="M17.0486 4.61586L17.8015 4.22168L17.9676 4.53833L17.1765 4.94565C16.901 5.08755 16.8509 5.2242 16.9326 5.38056C17.0143 5.53691 17.1581 5.57896 17.4323 5.43706L18.2234 5.02843L18.3829 5.33326L17.6301 5.72743C17.1581 5.97182 16.8535 5.88773 16.6636 5.52509C16.4738 5.16244 16.5766 4.86024 17.0486 4.61586Z" fill="#969696"/>
<path d="M18.8021 6.60381L18.9023 7.01901L17.4771 7.86649L17.3887 7.49991L18.1218 7.11361C18.2655 7.03478 18.4369 6.95068 18.5885 6.87185V6.86134C18.4171 6.86134 18.2273 6.86134 18.0611 6.86134L17.2332 6.84426L17.1475 6.4895L18.8021 6.60381ZM17.8607 6.65374L18.0374 7.39216L17.7671 7.45655L17.5905 6.71812L17.8607 6.65374Z" fill="#969696"/>
<path d="M19.0264 7.75732L19.0633 8.11077L17.4891 8.27632L17.4521 7.92288L19.0264 7.75732Z" fill="#969696"/>
<path d="M18.1732 9.06337L18.3947 9.31696L17.4863 9.79391L17.4982 9.39973L18.1732 9.06337ZM19.1067 8.58905L19.0896 9.15666C19.079 9.49171 18.9577 9.76238 18.578 9.75056C18.1983 9.73873 18.0664 9.46149 18.077 9.12644L18.0836 8.9149L17.514 8.89782L17.5246 8.54175L19.1067 8.58905ZM18.3618 9.10542C18.3618 9.29331 18.433 9.39711 18.5885 9.40105C18.7441 9.40499 18.8008 9.30644 18.8061 9.11987V8.93724L18.3618 8.9241V9.10542Z" fill="#969696"/>
<path d="M6.52344 16.9088C12.2086 19.7455 15.4058 13.9906 19.0328 13.7462C16.2786 11.7924 11.0061 17.9179 6.52344 16.9088Z" fill="#969696"/>
<path d="M14.3303 11.1499C13.6632 11.4245 12.9842 11.7477 12.3038 12.0762C11.4785 12.4704 10.6492 12.8843 9.83572 13.2246C9.07496 13.5596 8.27893 13.8086 7.46252 13.9669C5.36488 14.3243 3.50719 13.6122 2.23489 10.2683C2.23489 10.2538 2.20589 10.2591 2.20984 10.2683C4.60545 23.3234 16.0337 10.581 20.1631 11.5007C18.5638 9.87671 16.5084 10.2538 14.3303 11.1499Z" fill="#F8D113"/>
<path d="M12.0717 9.77034C11.4157 9.97253 10.7818 10.2402 10.1797 10.5692C9.81717 10.7532 9.45196 10.945 9.08279 11.1276C8.59016 11.3785 8.07884 11.5911 7.5534 11.7636C6.74651 12.0145 5.91853 12.1025 5.0655 11.8503C4.34827 11.6374 3.61521 11.1841 2.85711 10.3826C2.70549 10.221 2.55123 10.0463 2.39697 9.85706C2.50508 10.0699 2.61452 10.2683 2.72395 10.4575C3.10819 11.1488 3.60649 11.7707 4.19797 12.297C4.60497 12.6604 5.08908 12.9275 5.61416 13.0783C6.13924 13.2292 6.69173 13.2599 7.23038 13.1681C7.97005 13.041 8.68814 12.811 9.36362 12.4849C9.98329 12.2037 10.6003 11.8752 11.2094 11.5652C12.0216 11.1473 12.8179 10.7558 13.5826 10.5429C14.042 10.4028 14.5238 10.3507 15.0026 10.3892C14.0401 9.56274 13.0658 9.49967 12.0717 9.77034Z" fill="#969696"/>
<path d="M7.96068 8.43535C7.97776 8.43729 7.99501 8.43729 8.0121 8.43535C8.06149 8.4346 8.10968 8.42003 8.15117 8.39332C8.19266 8.3666 8.22579 8.32881 8.24678 8.28425C8.27021 8.23889 8.27684 8.18675 8.26551 8.13701C8.25418 8.08726 8.2256 8.04309 8.18481 8.01226C7.755 7.67984 6.88483 6.99266 5.88018 6.12548C5.22096 5.56049 4.9098 5.03756 4.93881 4.5698C4.95095 4.43211 4.99253 4.2986 5.06076 4.17826C5.12898 4.05792 5.22227 3.95353 5.33434 3.87211L5.54002 3.74072L5.29874 3.68947C5.24337 3.67765 3.94338 3.41749 3.15891 4.46863C2.76338 4.99419 2.59198 5.84956 3.09958 6.55645C3.70474 7.40655 6.70025 8.15286 7.96068 8.43535Z" fill="#969696"/>
<path d="M8.53676 8.19618H8.56049C8.61155 8.19355 8.66007 8.17319 8.69764 8.13863C8.73521 8.10407 8.75946 8.05749 8.76617 8.00697C8.84132 7.46958 9.00217 6.37509 9.25399 5.07562C9.41748 4.22814 9.71413 3.69206 10.1347 3.48447C10.2596 3.4267 10.3954 3.3959 10.5331 3.39409C10.6708 3.39227 10.8073 3.41949 10.9337 3.47395L11.1539 3.58432L11.0787 3.34256C11.0616 3.28869 10.6384 2.03783 9.33178 1.88542C8.67256 1.80921 7.84853 2.08645 7.48596 2.87874C7.05219 3.83002 7.90259 6.78897 8.28757 8.01617C8.30496 8.0684 8.33837 8.11387 8.38308 8.14616C8.42779 8.17846 8.48154 8.19595 8.53676 8.19618Z" fill="#969696"/>
<path d="M14.6638 5.93099C14.4002 5.32527 13.7409 4.74846 12.8787 4.8378C11.8358 4.93897 9.68936 7.15162 8.81523 8.09764C8.77753 8.14157 8.75543 8.19666 8.75233 8.25438C8.74923 8.3121 8.76531 8.36923 8.79809 8.41692C8.81842 8.44724 8.84584 8.47218 8.878 8.48958C8.91016 8.50697 8.94609 8.51631 8.98268 8.51678C9.0111 8.51664 9.03925 8.51129 9.06573 8.50101C9.56938 8.29604 10.6017 7.88873 11.8569 7.44988C12.6756 7.16738 13.2887 7.15556 13.6803 7.4144C13.7937 7.49316 13.889 7.59504 13.9599 7.71328C14.0308 7.83152 14.0757 7.96343 14.0916 8.10027L14.1061 8.34597L14.2709 8.16333C14.3092 8.12654 15.1846 7.13585 14.6638 5.93099Z" fill="#969696"/>
<path d="M8.20857 8.63634C8.18264 8.59187 8.14287 8.55704 8.09529 8.53712C8.0477 8.51721 7.9949 8.5133 7.94488 8.52598C6.99296 8.77299 4.75557 9.41156 3.34088 9.8399L3.17871 9.88851L3.29737 10.0094C3.93418 10.6572 4.56835 11.0684 5.2368 11.2655C5.3557 11.3017 5.4768 11.3302 5.59937 11.3509L5.64552 11.3601L5.68244 11.3299C6.57122 10.5888 7.40818 9.78805 8.18748 8.93329C8.22311 8.89291 8.24447 8.842 8.24829 8.78836C8.2521 8.73472 8.23814 8.68132 8.20857 8.63634Z" fill="#969696"/>
<path d="M8.72165 8.99245C8.70627 8.9422 8.67496 8.89826 8.63241 8.86723C8.58986 8.8362 8.53837 8.81974 8.48565 8.82033C8.43332 8.81994 8.38226 8.83634 8.34 8.8671C8.29774 8.89786 8.26652 8.94134 8.25097 8.99114C8.10198 9.44969 7.87917 10.1645 7.66162 10.962L7.60889 11.1539L7.79611 11.0868C8.20121 10.9339 8.59736 10.7585 8.98271 10.5613L9.14619 10.4798L9.1251 10.3997C8.97611 9.82548 8.82449 9.3183 8.72165 8.99245Z" fill="#969696"/>
<path d="M9.20289 8.59039L9.04468 8.55491C8.99341 8.54348 8.93983 8.54857 8.89166 8.56946C8.84349 8.59035 8.80322 8.62594 8.77667 8.67112C8.75011 8.71629 8.73865 8.76871 8.74393 8.82079C8.74921 8.87288 8.77096 8.92195 8.80603 8.96092C9.03544 9.2145 9.39933 9.60868 9.82915 10.0541L9.8832 10.108L10.0797 10.0081C10.601 9.73791 11.1587 9.54408 11.7356 9.43261L12.1391 9.35641L11.7435 9.2329C10.909 8.9688 9.80014 8.72967 9.20289 8.59039Z" fill="#969696"/>
<path d="M38.1384 10.1435H31.599V11.8056H34.7395C35.2275 11.7946 35.709 11.9187 36.1304 12.1643C36.5188 12.3906 36.8378 12.7181 37.0534 13.1116C37.2685 13.5011 37.3801 13.9389 37.3777 14.3835C37.3818 14.8337 37.2702 15.2775 37.0534 15.6725C36.8379 16.0663 36.5188 16.3943 36.1304 16.6211C35.7085 16.8653 35.2273 16.989 34.7395 16.9785H26.8394C26.3512 16.9888 25.8695 16.8652 25.4471 16.6211C25.0586 16.3944 24.7395 16.0665 24.5242 15.6725C24.3074 15.2775 24.1957 14.8337 24.1999 14.3835C24.1974 13.9389 24.3091 13.5011 24.5242 13.1116C24.7395 12.718 25.0587 12.3905 25.4471 12.1643C25.8692 11.9192 26.351 11.7951 26.8394 11.8056H29.9799V10.1435H23.4404V8.74548H38.1384V10.1435ZM34.609 6.07034H37.4423V7.46704H24.1366V6.06903H26.9053L26.5493 3.72369H28.2053L28.5613 6.06903H32.9794L33.3367 3.72369H34.9821L34.609 6.07034ZM24.2987 1.99719H37.2801V3.39389H24.2987V1.99719ZM35.3737 13.5387C35.1002 13.3099 34.7508 13.1913 34.3941 13.2062H27.1505C26.8015 13.1922 26.4603 13.3111 26.196 13.5387C26.0765 13.6415 25.9812 13.7694 25.917 13.9132C25.8527 14.0569 25.821 14.213 25.8242 14.3704C25.8192 14.5339 25.8499 14.6966 25.9141 14.8472C25.9783 14.9978 26.0744 15.1328 26.196 15.2428C26.4579 15.4754 26.8 15.5978 27.1505 15.5844H34.402C34.7602 15.5987 35.1105 15.4766 35.3816 15.2428C35.5052 15.134 35.6033 14.9995 35.6689 14.8487C35.7345 14.698 35.766 14.5346 35.7613 14.3704C35.7643 14.2116 35.7315 14.0543 35.6653 13.9099C35.5991 13.7655 35.5013 13.6377 35.3789 13.536L35.3737 13.5387Z" fill="#969696"/>
<path d="M47.22 17.1111H45.601V12.2772H39.0615V10.8753H53.7595V12.2772H47.22V17.1111ZM52.7575 8.84527H40.0714V2.17712H52.7628L52.7575 8.84527ZM41.6826 3.57382V7.44857H51.1358V3.57382H41.6826Z" fill="#969696"/>
<path d="M64.5561 4.52514H54.8379V3.1245H58.8855V1.3783H60.5072V3.1245H64.5548L64.5561 4.52514ZM55.5235 6.52623C55.7252 6.15842 56.025 5.85332 56.3897 5.6446C56.7512 5.43984 57.1605 5.33378 57.5763 5.33714H61.8256C62.2414 5.33378 62.6507 5.43984 63.0122 5.6446C63.377 5.85332 63.6768 6.15842 63.8785 6.52623C64.0917 6.94055 64.2029 7.39949 64.2029 7.86512C64.2029 8.33074 64.0917 8.78968 63.8785 9.204C63.6767 9.57145 63.3769 9.87613 63.0122 10.0843C62.6511 10.2901 62.2416 10.3966 61.8256 10.3931H57.5789C57.163 10.3966 56.7535 10.2901 56.3923 10.0843C56.0276 9.87613 55.7278 9.57145 55.5261 9.204C55.3129 8.78968 55.2017 8.33074 55.2017 7.86512C55.2017 7.39949 55.3129 6.94055 55.5261 6.52623H55.5235ZM56.0258 12.833C56.2963 12.4114 56.6806 12.0744 57.1346 11.8608C57.6218 11.6292 58.1559 11.5123 58.6957 11.5191H65.5924C66.135 11.5131 66.6719 11.6299 67.1627 11.8608C67.6197 12.0731 68.0069 12.4102 68.2794 12.833C68.5451 13.2628 68.6864 13.7575 68.6875 14.2623C68.6887 14.7671 68.5497 15.2624 68.286 15.6935C68.0128 16.1179 67.626 16.4579 67.1693 16.6749C66.68 16.9107 66.1425 17.0304 65.599 17.0245H58.6957C58.155 17.0313 57.6204 16.9115 57.1346 16.6749C56.6804 16.4568 56.296 16.1169 56.0245 15.6935C55.7598 15.263 55.6197 14.7681 55.6197 14.2633C55.6197 13.7584 55.7598 13.2635 56.0245 12.833H56.0258ZM61.2864 8.99246C61.6969 8.99246 62.0151 8.88735 62.241 8.67712C62.3488 8.57028 62.4344 8.44325 62.4927 8.30333C62.5511 8.16341 62.5812 8.01337 62.5812 7.86184C62.5812 7.7103 62.5511 7.56026 62.4927 7.42034C62.4344 7.28042 62.3488 7.15339 62.241 7.04655C62.0142 6.83632 61.696 6.7312 61.2864 6.7312H58.1129C57.7024 6.7312 57.3842 6.83632 57.1583 7.04655C57.0505 7.15339 56.9649 7.28042 56.9066 7.42034C56.8482 7.56026 56.8181 7.7103 56.8181 7.86184C56.8181 8.01337 56.8482 8.16341 56.9066 8.30333C56.9649 8.44325 57.0505 8.57028 57.1583 8.67712C57.3851 8.88735 57.7033 8.99246 58.1129 8.99246H61.2864ZM65.4949 15.6291C65.9029 15.6444 66.3026 15.5113 66.6195 15.2546C66.7646 15.1345 66.8803 14.983 66.9575 14.8115C67.0348 14.64 67.0716 14.4531 67.0651 14.2652C67.0721 14.0784 67.0354 13.8926 66.9581 13.7223C66.8808 13.552 66.7649 13.4018 66.6195 13.2837C66.3006 13.0316 65.9016 12.9016 65.4949 12.9171H58.7932C58.3915 12.9033 57.9982 13.0334 57.6844 13.2837C57.539 13.4018 57.4231 13.552 57.3458 13.7223C57.2685 13.8926 57.2319 14.0784 57.2388 14.2652C57.2322 14.4524 57.2681 14.6386 57.3439 14.8099C57.4197 14.9812 57.5334 15.1333 57.6765 15.2546C57.9899 15.512 58.3874 15.6453 58.7932 15.6291H65.4949ZM68.2465 10.9633H66.6274V1.77773H68.2465V5.1821H70.319V6.57879H68.2465V10.9633Z" fill="#969696"/>
<path d="M84.9998 9.79393H70.3018V8.39723H76.033V5.32004H77.6468V8.39723H84.9958L84.9998 9.79393ZM71.3868 12.7371C71.5949 12.3142 71.9138 11.9551 72.3098 11.6978C72.7244 11.4318 73.209 11.2946 73.702 11.3036H81.6021C82.0952 11.2946 82.5798 11.4318 82.9944 11.6978C83.3904 11.9551 83.7092 12.3142 83.9173 12.7371C84.1323 13.1713 84.2425 13.6496 84.239 14.1338C84.2434 14.6237 84.1328 15.1079 83.916 15.5476C83.7083 15.9708 83.3893 16.3299 82.9931 16.5869C82.5787 16.8535 82.0939 16.9907 81.6008 16.9811H73.702C73.2089 16.9907 72.7241 16.8535 72.3098 16.5869C71.9135 16.3299 71.5946 15.9708 71.3868 15.5476C71.169 15.1082 71.0579 14.6239 71.0625 14.1338C71.0593 13.6493 71.1704 13.1709 71.3868 12.7371ZM82.3457 3.3912H71.3183V1.99451H84.0742L83.6523 7.43282H82.0385L82.3457 3.3912ZM81.2607 15.5818C81.4445 15.5874 81.6274 15.5531 81.7966 15.4812C81.9657 15.4092 82.1172 15.3014 82.2403 15.1652C82.4986 14.877 82.6351 14.5003 82.6213 14.1141C82.6277 13.9284 82.5974 13.7432 82.532 13.5692C82.4666 13.3951 82.3675 13.2356 82.2403 13.0998C82.1142 12.9688 81.9617 12.8659 81.7929 12.798C81.624 12.73 81.4426 12.6985 81.2607 12.7056H74.0092C73.831 12.6992 73.6536 12.731 73.4889 12.7991C73.3241 12.8671 73.1761 12.9696 73.0547 13.0998C72.8017 13.3761 72.6677 13.7403 72.6816 14.1141C72.6669 14.4991 72.8004 14.8751 73.0547 15.1652C73.1731 15.3006 73.3201 15.4081 73.4851 15.4801C73.6502 15.5521 73.8291 15.5868 74.0092 15.5818H81.2607Z" fill="#969696"/>
</g>
<defs>
<clipPath id="clip0_340_778">
<rect width="85" height="19.2174" fill="white"/>
</clipPath>
</defs>
</svg>
